<svg version="1.1" xmlns="http://www.w3.org/2000/svg" viewBox="0 0 1383 801.5426931627851" width="1383" height="801.5426931627851">
  <!-- svg-source:excalidraw -->
  
  <defs>
    <style class="style-fonts">
      @font-face {
        font-family: "Virgil";
        src: url("https://excalidraw.com/Virgil.woff2");
      }
      @font-face {
        font-family: "Cascadia";
        src: url("https://excalidraw.com/Cascadia.woff2");
      }
    </style>
    
  </defs>
  <rect x="0" y="0" width="1383" height="801.5426931627851" fill="#ffffff"></rect><g stroke-linecap="round" transform="translate(24 21.4573068372149) rotate(0 83.05128205128204 24.5)"><path d="M59.39 0.82 C70.77 -0.35, 86.9 -0.16, 99.5 0.74 C112.11 1.63, 124.96 4, 135 6.19 C145.04 8.38, 154.47 10.58, 159.76 13.86 C165.05 17.14, 167.89 21.82, 166.76 25.86 C165.62 29.9, 159.71 34.77, 152.95 38.12 C146.19 41.46, 136.98 44.21, 126.2 45.92 C115.42 47.63, 101.32 48.4, 88.28 48.37 C75.23 48.35, 59.88 47.22, 47.91 45.77 C35.93 44.31, 24.36 42.34, 16.42 39.64 C8.48 36.94, 2.17 33.4, 0.26 29.58 C-1.65 25.76, 0.86 20.64, 4.97 16.74 C9.08 12.84, 15.45 8.98, 24.92 6.18 C34.39 3.38, 55.15 0.77, 61.8 -0.05 C68.45 -0.88, 64.51 0.85, 64.83 1.24 M48.37 2.49 C58.98 0.42, 74.54 -0.81, 86.97 -0.53 C99.4 -0.24, 111.73 2.21, 122.97 4.2 C134.21 6.18, 147.45 8.12, 154.41 11.38 C161.38 14.64, 164.04 20, 164.78 23.74 C165.52 27.47, 163.6 30.52, 158.85 33.79 C154.09 37.06, 145.8 40.9, 136.23 43.35 C126.66 45.81, 114.23 47.9, 101.41 48.51 C88.6 49.13, 71.75 48.28, 59.34 47.03 C46.93 45.78, 36.18 43.56, 26.93 41 C17.68 38.44, 7.99 34.91, 3.83 31.69 C-0.33 28.47, -0.28 25.43, 1.95 21.67 C4.19 17.91, 9.93 12.46, 17.25 9.13 C24.56 5.81, 40.96 2.96, 45.85 1.72 C50.73 0.47, 45.99 1.28, 46.56 1.65" stroke="#1e1e1e" stroke-width="1" fill="none"></path></g><g transform="translate(56.825157326583906 33.63319069814446) rotate(0 50 12.5)"><text x="50" y="0" font-family="Virgil, Segoe UI Emoji" font-size="20px" fill="#1e1e1e" text-anchor="middle" style="white-space: pre;" direction="ltr" dominant-baseline="text-before-edge">從這裡開始</text></g><g stroke-linecap="round" transform="translate(10 132.4573068372149) rotate(0 100 17.5)"><path d="M8.75 0 M8.75 0 C80.53 -1.48, 149.73 -3.38, 191.25 0 M8.75 0 C63.55 -0.17, 119.69 0.11, 191.25 0 M191.25 0 C195.44 -1.48, 201.06 3.19, 200 8.75 M191.25 0 C195.3 -0.94, 202.16 2.81, 200 8.75 M200 8.75 C198.45 13.84, 199.55 15.55, 200 26.25 M200 8.75 C199.36 12.2, 199.1 16.67, 200 26.25 M200 26.25 C199.63 31.42, 197.8 35.04, 191.25 35 M200 26.25 C202.05 32.53, 196.3 35.26, 191.25 35 M191.25 35 C118.95 36.53, 47.87 33.45, 8.75 35 M191.25 35 C136.91 35.04, 83.42 36.04, 8.75 35 M8.75 35 C2.68 36.47, 1.17 31.57, 0 26.25 M8.75 35 C1.55 35.93, -0.44 32.18, 0 26.25 M0 26.25 C0.42 21.7, -1.79 16.08, 0 8.75 M0 26.25 C0.16 23.03, -0.73 19.04, 0 8.75 M0 8.75 C-0.65 4.82, 4.66 0.91, 8.75 0 M0 8.75 C0.02 1.25, 1.62 -2.28, 8.75 0" stroke="#1e1e1e" stroke-width="1" fill="none"></path></g><g transform="translate(50 137.4573068372149) rotate(0 60 12.5)"><text x="60" y="0" font-family="Virgil, Segoe UI Emoji" font-size="20px" fill="#1e1e1e" text-anchor="middle" style="white-space: pre;" direction="ltr" dominant-baseline="text-before-edge">超音波感測器</text></g><g stroke-linecap="round" transform="translate(216 217.4573068372149) rotate(0 61 35)"><path d="M77.5 9 M77.5 9 C83.41 15.32, 90.04 17.59, 106.5 27 M77.5 9 C86.31 13.95, 96.06 20.09, 106.5 27 M106.5 27 C121.17 36.71, 122.61 36.39, 106.5 45 M106.5 27 C120.37 35.3, 122.43 35.44, 106.5 45 M106.5 45 C101.22 47.99, 92.37 53.29, 77.5 61 M106.5 45 C97.94 50.37, 88.68 55.41, 77.5 61 M77.5 61 C61.4 68.49, 63.72 70.02, 46.5 61 M77.5 61 C61.45 72.07, 62.95 67.86, 46.5 61 M46.5 61 C37.47 55.65, 26.91 53.02, 15.5 45 M46.5 61 C37.99 56.31, 27.69 51.2, 15.5 45 M15.5 45 C0.87 34.48, -0.67 37.49, 15.5 27 M15.5 45 C0.66 38.06, -1.16 35.41, 15.5 27 M15.5 27 C22.58 24.21, 30.51 17.52, 46.5 9 M15.5 27 C27.54 19.76, 38.45 14.31, 46.5 9 M46.5 9 C61.76 1.99, 62.01 1.26, 77.5 9 M46.5 9 C61.08 -0.75, 64.09 1.74, 77.5 9" stroke="#1e1e1e" stroke-width="1" fill="none"></path></g><g transform="translate(252.34166717529297 239.9573068372149) rotate(0 24.65833282470703 12.5)"><text x="24.65833282470703" y="0" font-family="Virgil, Segoe UI Emoji" font-size="20px" fill="#1e1e1e" text-anchor="middle" style="white-space: pre;" direction="ltr" dominant-baseline="text-before-edge">靠近?</text></g><g stroke-linecap="round" transform="translate(983 240.4573068372149) rotate(0 67 17.5)"><path d="M8.75 0 M8.75 0 C53.85 -1.82, 95.89 -1.05, 125.25 0 M8.75 0 C35.13 -1.35, 62.92 -0.33, 125.25 0 M125.25 0 C131.99 -0.93, 134.81 1.25, 134 8.75 M125.25 0 C132.14 2.19, 134.24 1.36, 134 8.75 M134 8.75 C134.11 12.57, 133.29 18.59, 134 26.25 M134 8.75 C133.82 13.84, 133.2 19.29, 134 26.25 M134 26.25 C132.29 33.69, 132.96 36.11, 125.25 35 M134 26.25 C134.11 33.13, 132.62 36.97, 125.25 35 M125.25 35 C85.84 36.99, 43.26 35.66, 8.75 35 M125.25 35 C102.83 34.84, 78.71 34.47, 8.75 35 M8.75 35 C4.71 33.53, -1.54 32.82, 0 26.25 M8.75 35 C3.56 37.2, 1.43 32.43, 0 26.25 M0 26.25 C-0.72 19.93, 1.29 14.69, 0 8.75 M0 26.25 C-0.14 20.09, -0.69 13.39, 0 8.75 M0 8.75 C-0.94 2.52, 1.66 -0.57, 8.75 0 M0 8.75 C1.73 3.12, 1.26 1.49, 8.75 0" stroke="#1e1e1e" stroke-width="1" fill="none"></path></g><g transform="translate(1020 245.4573068372149) rotate(0 30 12.5)"><text x="30" y="0" font-family="Virgil, Segoe UI Emoji" font-size="20px" fill="#1e1e1e" text-anchor="middle" style="white-space: pre;" direction="ltr" dominant-baseline="text-before-edge">轉過來</text></g><g stroke-linecap="round" transform="translate(998 599.4573068372149) rotate(0 61 35)"><path d="M77.5 9 M77.5 9 C86.75 12.87, 93.18 21.17, 106.5 27 M77.5 9 C86.36 14.32, 96.33 19.94, 106.5 27 M106.5 27 C123.85 36.56, 120.12 35.89, 106.5 45 M106.5 27 C120.7 37.18, 123.98 37.44, 106.5 45 M106.5 45 C98.07 49.41, 86.96 55.96, 77.5 61 M106.5 45 C95.32 50.38, 85.73 57.51, 77.5 61 M77.5 61 C63.71 70.47, 63.31 68.4, 46.5 61 M77.5 61 C61.06 68.22, 59.72 70.09, 46.5 61 M46.5 61 C41.52 57.57, 31.49 54.43, 15.5 45 M46.5 61 C38.94 57.57, 31.54 54.19, 15.5 45 M15.5 45 C0.08 37.29, 1.02 34.23, 15.5 27 M15.5 45 C-1.94 34.14, -1.14 37.3, 15.5 27 M15.5 27 C26.07 21.7, 32.37 16.85, 46.5 9 M15.5 27 C26.92 19.29, 38.25 14.2, 46.5 9 M46.5 9 C62.67 -1.08, 62.14 -0.9, 77.5 9 M46.5 9 C62.85 1.14, 61.11 -0.5, 77.5 9" stroke="#1e1e1e" stroke-width="1" fill="none"></path></g><g transform="translate(1034.341667175293 621.9573068372149) rotate(0 24.65833282470703 12.5)"><text x="24.65833282470703" y="0" font-family="Virgil, Segoe UI Emoji" font-size="20px" fill="#1e1e1e" text-anchor="middle" style="white-space: pre;" direction="ltr" dominant-baseline="text-before-edge">遠離?</text></g><g stroke-linecap="round" transform="translate(1239 497.9573068372149) rotate(0 67 17.5)"><path d="M8.75 0 M8.75 0 C45.53 1.5, 80.62 -0.76, 125.25 0 M8.75 0 C34.57 0.23, 61.21 0.9, 125.25 0 M125.25 0 C131.37 0.07, 133.55 1, 134 8.75 M125.25 0 C132.5 0.03, 132.56 2.38, 134 8.75 M134 8.75 C132.46 12.65, 134.2 16.59, 134 26.25 M134 8.75 C133.2 12.6, 134.24 18.31, 134 26.25 M134 26.25 C134.64 31.87, 130 33.28, 125.25 35 M134 26.25 C134.05 33.06, 130.31 34.34, 125.25 35 M125.25 35 C89.99 36.36, 54.02 33.76, 8.75 35 M125.25 35 C90.21 34.97, 57.22 34.22, 8.75 35 M8.75 35 C1.14 36.51, -1.79 33.04, 0 26.25 M8.75 35 C3.88 33.42, -1.12 32.19, 0 26.25 M0 26.25 C-1.48 23.35, -0.57 16.6, 0 8.75 M0 26.25 C0.01 21.87, 0.67 18.16, 0 8.75 M0 8.75 C1.11 3.01, 2.44 -0.62, 8.75 0 M0 8.75 C-1.91 2.34, 4.92 1.12, 8.75 0" stroke="#1e1e1e" stroke-width="1" fill="none"></path></g><g transform="translate(1276 502.9573068372149) rotate(0 30 12.5)"><text x="30" y="0" font-family="Virgil, Segoe UI Emoji" font-size="20px" fill="#1e1e1e" text-anchor="middle" style="white-space: pre;" direction="ltr" dominant-baseline="text-before-edge">轉回去</text></g><g mask="url(#mask-pZ51FeigYW4SO_svkilZ1)" stroke-linecap="round"><g transform="translate(348 255.4573068372149) rotate(0 44.27570124153044 1.6629539816267993)"><path d="M-0.05 0.77 C14.47 1.33, 73.06 2.76, 87.93 3.2 M-1.53 0.12 C13.27 0.31, 75.07 0.99, 90.09 1.19" stroke="#1e1e1e" stroke-width="1" fill="none"></path></g><g transform="translate(348 255.4573068372149) rotate(0 44.27570124153044 1.6629539816267993)"><path d="M63.05 9.33 C72.52 7.81, 83.27 2.04, 91.91 0.11 M62.59 10.89 C69.49 9.45, 76.32 7.09, 90.96 1.18" stroke="#1e1e1e" stroke-width="1" fill="none"></path></g><g transform="translate(348 255.4573068372149) rotate(0 44.27570124153044 1.6629539816267993)"><path d="M63.3 -11.19 C72.65 -5.18, 83.31 -3.4, 91.91 0.11 M62.84 -9.63 C69.86 -6.1, 76.63 -3.47, 90.96 1.18" stroke="#1e1e1e" stroke-width="1" fill="none"></path></g></g><mask id="mask-pZ51FeigYW4SO_svkilZ1"><rect x="0" y="0" fill="#fff" width="537" height="358.4573068372149"></rect><rect x="382.5" y="244.4573068372149" fill="#000" width="20" height="25" opacity="1"></rect></mask><g transform="translate(382.5 244.4573068372149) rotate(0 9.775701241530442 12.6629539816268)"><text x="10" y="0" font-family="Virgil, Segoe UI Emoji" font-size="20px" fill="#1e1e1e" text-anchor="middle" style="white-space: pre;" direction="ltr" dominant-baseline="text-before-edge">是</text></g><g stroke-linecap="round" transform="translate(79 226.4573068372149) rotate(0 35 26.5)"><path d="M13.25 0 M13.25 0 C30.11 -0.49, 43.09 -1.03, 56.75 0 M13.25 0 C29.98 0.41, 46.62 0.61, 56.75 0 M56.75 0 C64.41 -0.67, 70.23 3.51, 70 13.25 M56.75 0 C64.48 -2.29, 70.11 6.58, 70 13.25 M70 13.25 C69.21 19.93, 71.57 26.98, 70 39.75 M70 13.25 C69.46 22.37, 69.97 29.1, 70 39.75 M70 39.75 C69.53 50.17, 64.44 54.8, 56.75 53 M70 39.75 C68.74 49.66, 67.71 51.47, 56.75 53 M56.75 53 C45.63 53.09, 38.29 54.01, 13.25 53 M56.75 53 C46.82 53.64, 38.68 52.59, 13.25 53 M13.25 53 C4.05 54.36, -1.56 49.03, 0 39.75 M13.25 53 C4.96 54.65, -1.21 47.66, 0 39.75 M0 39.75 C1.47 35.07, -1.66 29.29, 0 13.25 M0 39.75 C0.34 33.59, -0.31 28.58, 0 13.25 M0 13.25 C-1.43 2.82, 4.82 0.27, 13.25 0 M0 13.25 C-0.31 2.9, 4.98 -1.16, 13.25 0" stroke="#1e1e1e" stroke-width="1" fill="none"></path></g><g transform="translate(94 240.4573068372149) rotate(0 20 12.5)"><text x="20" y="0" font-family="Virgil, Segoe UI Emoji" font-size="20px" fill="#1e1e1e" text-anchor="middle" style="white-space: pre;" direction="ltr" dominant-baseline="text-before-edge">偵測</text></g><g stroke-linecap="round"><g transform="translate(113 176.4573068372149) rotate(0 -0.02843398215853199 21.561016182471064)"><path d="M0.71 0.73 C0.5 7.93, -0.11 36.07, -0.22 43.06 M-0.37 0.06 C-0.77 6.97, -0.79 34.73, -0.76 41.49" stroke="#1e1e1e" stroke-width="1" fill="none"></path></g><g transform="translate(113 176.4573068372149) rotate(0 -0.02843398215853199 21.561016182471064)"><path d="M-6.74 23.05 C-3.41 31.08, -1.28 39.02, -0.24 42.35 M-8.39 21.34 C-5.65 26.58, -5.19 31.21, -0.67 41.3" stroke="#1e1e1e" stroke-width="1" fill="none"></path></g><g transform="translate(113 176.4573068372149) rotate(0 -0.02843398215853199 21.561016182471064)"><path d="M7.63 23.05 C5.36 31.17, 1.89 39.11, -0.24 42.35 M5.98 21.34 C5.26 26.72, 2.26 31.35, -0.67 41.3" stroke="#1e1e1e" stroke-width="1" fill="none"></path></g></g><mask></mask><g stroke-linecap="round"><g transform="translate(155 250.4573068372149) rotate(0 28.175153280673555 0.8840113928634423)"><path d="M0.13 -0.21 C9.89 0.39, 47.8 2.87, 57.61 3.13 M-1.26 -1.36 C8.39 -1.03, 46.45 0.98, 56.46 1.6" stroke="#1e1e1e" stroke-width="1" fill="none"></path></g><g transform="translate(155 250.4573068372149) rotate(0 28.175153280673555 0.8840113928634423)"><path d="M28.33 9.32 C36.74 9.8, 39.95 7.34, 58.22 2.71 M28.12 9.56 C35.16 9.13, 41.5 5.71, 55.75 1.98" stroke="#1e1e1e" stroke-width="1" fill="none"></path></g><g transform="translate(155 250.4573068372149) rotate(0 28.175153280673555 0.8840113928634423)"><path d="M29.45 -10.49 C37.54 -5.63, 40.5 -3.7, 58.22 2.71 M29.24 -10.26 C35.93 -6.43, 42.03 -5.57, 55.75 1.98" stroke="#1e1e1e" stroke-width="1" fill="none"></path></g></g><mask></mask><g mask="url(#mask-20qieteFKQH7TDdY_CLes)" stroke-linecap="round"><g transform="translate(280 289.4573068372149) rotate(0 -63.45306085896681 41.3936332219605)"><path d="M-0.85 -0.21 C-8.25 13.72, -22.13 83.56, -43.28 83.31 C-64.44 83.06, -113.98 12.17, -127.81 -1.7 M0.9 -1.36 C-6.77 12.73, -23.34 84.38, -44.38 84.49 C-65.42 84.59, -111.8 13.65, -125.33 -0.75" stroke="#1e1e1e" stroke-width="1" fill="none"></path></g><g transform="translate(280 289.4573068372149) rotate(0 -63.45306085896681 41.3936332219605)"><path d="M-100.19 14.6 C-110.89 7.39, -120.84 3.87, -123.52 1.19 M-99.07 14.82 C-109.93 9.4, -120.09 3.54, -124.98 -1.2" stroke="#1e1e1e" stroke-width="1" fill="none"></path></g><g transform="translate(280 289.4573068372149) rotate(0 -63.45306085896681 41.3936332219605)"><path d="M-116.33 27.28 C-120.71 15.24, -124.37 6.79, -123.52 1.19 M-115.21 27.5 C-119.86 17.11, -123.81 6.37, -124.98 -1.2" stroke="#1e1e1e" stroke-width="1" fill="none"></path></g></g><mask id="mask-20qieteFKQH7TDdY_CLes"><rect x="0" y="0" fill="#fff" width="507" height="474.4573068372149"></rect><rect x="227" y="360.9573068372149" fill="#000" width="20" height="25" opacity="1"></rect></mask><g transform="translate(227 360.9573068372149) rotate(0 -10.453060858966808 -30.1063667780395)"><text x="10" y="0" font-family="Virgil, Segoe UI Emoji" font-size="20px" fill="#1e1e1e" text-anchor="middle" style="white-space: pre;" direction="ltr" dominant-baseline="text-before-edge">否</text></g><g stroke-linecap="round" transform="translate(448 219.4573068372149) rotate(0 55.5 35)"><path d="M70 9 M70 9 C80.35 16.07, 91.71 21.64, 97 27 M70 9 C78.89 15.55, 88.33 21.39, 97 27 M97 27 C111.31 37.67, 110.83 34.48, 97 45 M97 27 C110.61 36.1, 112.24 38.01, 97 45 M97 45 C89 48.47, 82.08 51.11, 70 61 M97 45 C88.32 49.58, 80.57 54.78, 70 61 M70 61 C57.6 68.49, 57.92 68.22, 42 61 M70 61 C54.08 68.48, 53.95 70.27, 42 61 M42 61 C32.62 56.78, 27.73 53.29, 14 45 M42 61 C33.74 55.89, 26.93 52.5, 14 45 M14 45 C-0.12 36.51, 1.04 37.97, 14 27 M14 45 C1.77 34.91, 0.61 34.33, 14 27 M14 27 C22.45 24.07, 25.87 16.89, 42 9 M14 27 C23.94 20.84, 34.23 14.36, 42 9 M42 9 C55.75 1.95, 54.55 -1.31, 70 9 M42 9 C55.92 1.53, 54.28 -1.83, 70 9" stroke="#1e1e1e" stroke-width="1" fill="none"></path></g><g transform="translate(483.75 241.9573068372149) rotate(0 20 12.5)"><text x="20" y="0" font-family="Virgil, Segoe UI Emoji" font-size="20px" fill="#1e1e1e" text-anchor="middle" style="white-space: pre;" direction="ltr" dominant-baseline="text-before-edge">很近</text></g><g stroke-linecap="round" transform="translate(685.5 219.4573068372149) rotate(0 78.5 35)"><path d="M98.75 9 M98.75 9 C107.02 13.71, 118.9 16.95, 137.25 27 M98.75 9 C107.37 12.42, 115.92 16.62, 137.25 27 M137.25 27 C157.07 35.89, 157.65 37.37, 137.25 45 M137.25 27 C158.89 37.7, 157.74 35.81, 137.25 45 M137.25 45 C126.97 51.47, 115.09 55.61, 98.75 61 M137.25 45 C126.06 50.79, 112.7 56.2, 98.75 61 M98.75 61 C78.62 70.58, 78.46 68.77, 59.25 61 M98.75 61 C78.92 67.99, 77.41 71.05, 59.25 61 M59.25 61 C44.05 53.69, 29.72 48.06, 19.75 45 M59.25 61 C49.14 57.73, 40.46 54.19, 19.75 45 M19.75 45 C-1.8 34.06, 1.38 36.88, 19.75 27 M19.75 45 C-0.02 35.04, 1.04 36.89, 19.75 27 M19.75 27 C36.69 19.51, 48.78 13.75, 59.25 9 M19.75 27 C27.44 23.98, 36.04 18.52, 59.25 9 M59.25 9 C78.28 0.97, 79.49 -0.22, 98.75 9 M59.25 9 C77.76 -1.98, 76.83 0.01, 98.75 9" stroke="#1e1e1e" stroke-width="1" fill="none"></path></g><g transform="translate(734.25 241.9573068372149) rotate(0 30 12.5)"><text x="30" y="0" font-family="Virgil, Segoe UI Emoji" font-size="20px" fill="#1e1e1e" text-anchor="middle" style="white-space: pre;" direction="ltr" dominant-baseline="text-before-edge">還能吃</text></g><g mask="url(#mask-UMQWXiXuHQpit8WxYMuPV)" stroke-linecap="round"><g transform="translate(563.6291225991426 255.92309760133662) rotate(0 54.096857680145774 0.061553984444628895)"><path d="M0.99 -0.85 C18.86 -1.05, 90.51 -1.09, 108.14 -1.2 M0.06 1.32 C17.78 1.3, 90.13 0.52, 107.76 0.21" stroke="#1e1e1e" stroke-width="1" fill="none"></path></g><g transform="translate(563.6291225991426 255.92309760133662) rotate(0 54.096857680145774 0.061553984444628895)"><path d="M78.29 12.65 C89.93 6.1, 100.02 3.08, 107.26 -1.12 M79.09 10.1 C86.61 8.08, 93.87 6.17, 107.12 0.77" stroke="#1e1e1e" stroke-width="1" fill="none"></path></g><g transform="translate(563.6291225991426 255.92309760133662) rotate(0 54.096857680145774 0.061553984444628895)"><path d="M78.02 -7.87 C89.77 -6.64, 99.96 -1.88, 107.26 -1.12 M78.81 -10.42 C86.58 -6.96, 93.91 -3.39, 107.12 0.77" stroke="#1e1e1e" stroke-width="1" fill="none"></path></g></g><mask id="mask-UMQWXiXuHQpit8WxYMuPV"><rect x="0" y="0" fill="#fff" width="770.6824353025847" height="356.87663841339304"></rect><rect x="607.1557789508638" y="242.9463271953084" fill="#000" width="20" height="25" opacity="1"></rect></mask><g transform="translate(607.1557789508638 242.9463271953084) rotate(0 10.57020132842473 13.038324390472837)"><text x="10" y="0" font-family="Virgil, Segoe UI Emoji" font-size="20px" fill="#1e1e1e" text-anchor="middle" style="white-space: pre;" direction="ltr" dominant-baseline="text-before-edge">是</text></g><g mask="url(#mask-O9obtRdp45ySutmXOUnVf)" stroke-linecap="round"><g transform="translate(503.45306085896675 294.7869870569625) rotate(0 -186.54602303620425 60.535729880358076)"><path d="M-0.35 -0.37 C-37.33 20.12, -159.85 124.79, -222.07 124.11 C-284.28 123.42, -348.33 16.94, -373.65 -4.49 M1.67 -1.6 C-35.47 19.58, -160.32 125.8, -223.05 125.56 C-285.79 125.32, -349.56 18.41, -374.76 -3.04" stroke="#1e1e1e" stroke-width="1" fill="none"></path></g><g transform="translate(503.45306085896675 294.7869870569625) rotate(0 -186.54602303620425 60.535729880358076)"><path d="M-349.2 11.5 C-356.5 6.26, -363.32 1.52, -374.26 -3.73 M-349.09 10.91 C-356.76 6.45, -364.7 1.3, -373.99 -3.38" stroke="#1e1e1e" stroke-width="1" fill="none"></path></g><g transform="translate(503.45306085896675 294.7869870569625) rotate(0 -186.54602303620425 60.535729880358076)"><path d="M-364.75 24.89 C-367.73 15.86, -370.09 7.29, -374.26 -3.73 M-364.64 24.3 C-367.17 15.45, -370.04 5.92, -373.99 -3.38" stroke="#1e1e1e" stroke-width="1" fill="none"></path></g></g><mask id="mask-O9obtRdp45ySutmXOUnVf"><rect x="0" y="0" fill="#fff" width="976.4530608589668" height="523.7869870569625"></rect><rect x="271.4609348747148" y="406.5575752922566" fill="#000" width="20" height="25" opacity="1"></rect></mask><g transform="translate(271.4609348747148 406.5575752922566) rotate(0 45.446102948047724 -51.23485835493602)"><text x="10" y="0" font-family="Virgil, Segoe UI Emoji" font-size="20px" fill="#1e1e1e" text-anchor="middle" style="white-space: pre;" direction="ltr" dominant-baseline="text-before-edge">否</text></g><g mask="url(#mask-EpFOnuK2u6pYQWtEwoJ2p)" stroke-linecap="round"><g transform="translate(758.5460230362041 295.3159750558476) rotate(0 -322.64798482613634 78.18880278107275)"><path d="M1.1 0.64 C-74.36 27.75, -344.04 162.94, -451.79 161.73 C-559.55 160.52, -613.3 21.49, -645.41 -6.62 M0.22 -0.07 C-75.47 27.28, -344.87 163.85, -452.64 162.99 C-560.41 162.13, -614.51 22.91, -646.4 -5.24" stroke="#1e1e1e" stroke-width="1" fill="none"></path></g><g transform="translate(758.5460230362041 295.3159750558476) rotate(0 -322.64798482613634 78.18880278107275)"><path d="M-620.41 11.78 C-631.75 4.62, -640.18 -0.19, -646.7 -7.04 M-620.75 11.98 C-628.82 5.19, -638.28 0.06, -646.15 -5.6" stroke="#1e1e1e" stroke-width="1" fill="none"></path></g><g transform="translate(758.5460230362041 295.3159750558476) rotate(0 -322.64798482613634 78.18880278107275)"><path d="M-636.97 23.9 C-641.9 11.96, -644 2.53, -646.7 -7.04 M-637.31 24.1 C-639.97 13.37, -643.96 4.25, -646.15 -5.6" stroke="#1e1e1e" stroke-width="1" fill="none"></path></g></g><mask id="mask-EpFOnuK2u6pYQWtEwoJ2p"><rect x="0" y="0" fill="#fff" width="1503.5460230362041" height="564.3159750558476"></rect><rect x="296.55389705195216" y="445.0865632911417" fill="#000" width="20" height="25" opacity="1"></rect></mask><g transform="translate(296.55389705195216 445.0865632911417) rotate(0 139.34414115811563 -71.58178545422135)"><text x="10" y="0" font-family="Virgil, Segoe UI Emoji" font-size="20px" fill="#1e1e1e" text-anchor="middle" style="white-space: pre;" direction="ltr" dominant-baseline="text-before-edge">否</text></g><g mask="url(#mask-uhwM9-SxttsTaoeErf5sN)" stroke-linecap="round"><g transform="translate(859.9031423198542 257.9230976013366) rotate(0 53.358720537636486 -0.6138588180560305)"><path d="M0.85 -0.17 C18.8 -0.27, 88.98 -1.1, 106.88 -1.28 M-0.16 -1.31 C17.68 -1.18, 87.8 -0.12, 105.83 0.08" stroke="#1e1e1e" stroke-width="1" fill="none"></path></g><g transform="translate(859.9031423198542 257.9230976013366) rotate(0 53.358720537636486 -0.6138588180560305)"><path d="M77.22 9.67 C83.68 9.36, 90.38 5.74, 104.67 -1.53 M77.62 10.45 C87.9 5.46, 97.96 3.04, 105.6 -0.78" stroke="#1e1e1e" stroke-width="1" fill="none"></path></g><g transform="translate(859.9031423198542 257.9230976013366) rotate(0 53.358720537636486 -0.6138588180560305)"><path d="M77.49 -10.85 C83.78 -6.33, 90.41 -5.12, 104.67 -1.53 M77.89 -10.07 C88.02 -7.47, 97.99 -2.3, 105.6 -0.78" stroke="#1e1e1e" stroke-width="1" fill="none"></path></g></g><mask id="mask-uhwM9-SxttsTaoeErf5sN"><rect x="0" y="0" fill="#fff" width="1066.9564550232963" height="358.87663841339304"></rect><rect x="903.4297986715753" y="244.9463271953084" fill="#000" width="20" height="25" opacity="1"></rect></mask><g transform="translate(903.4297986715749 244.9463271953084) rotate(0 9.832064185915556 12.362911587972178)"><text x="10" y="0" font-family="Virgil, Segoe UI Emoji" font-size="20px" fill="#1e1e1e" text-anchor="middle" style="white-space: pre;" direction="ltr" dominant-baseline="text-before-edge">是</text></g><g stroke-linecap="round" transform="translate(1001.5 393.4573068372149) rotate(0 55.5 35)"><path d="M70 9 M70 9 C77.69 12.65, 81.07 17.2, 97 27 M70 9 C78.39 15.46, 88.02 19.86, 97 27 M97 27 C111.82 35.13, 110.8 36.94, 97 45 M97 27 C113.07 34.42, 112.9 37.35, 97 45 M97 45 C91.14 48.45, 87.48 52.93, 70 61 M97 45 C85.66 51.35, 75.68 57.87, 70 61 M70 61 C56.87 68.37, 55.62 69.8, 42 61 M70 61 C57 69.76, 55.6 70.38, 42 61 M42 61 C33.09 55.34, 26.97 50.92, 14 45 M42 61 C32.27 55.86, 20.37 49.5, 14 45 M14 45 C-0.18 37.38, -0.22 36.67, 14 27 M14 45 C0.62 34.59, -1.12 36, 14 27 M14 27 C23.94 21.17, 30.54 14.73, 42 9 M14 27 C24.86 20.47, 36.03 12.24, 42 9 M42 9 C55.22 0.35, 55.71 -0.66, 70 9 M42 9 C54.46 -0.67, 54.42 -1.69, 70 9" stroke="#1e1e1e" stroke-width="1" fill="none"></path></g><g transform="translate(1037.25 415.9573068372149) rotate(0 20 12.5)"><text x="20" y="0" font-family="Virgil, Segoe UI Emoji" font-size="20px" fill="#1e1e1e" text-anchor="middle" style="white-space: pre;" direction="ltr" dominant-baseline="text-before-edge">很久</text></g><g stroke-linecap="round"><g transform="translate(1051.3548445339165 283.4573068372149) rotate(0 1.799210796602324 49.27536323844902)"><path d="M-0.8 0.5 C0.08 16.89, 3.53 81.05, 4.4 97.44 M0.97 -0.28 C1.77 16.37, 3.01 82.6, 3.46 98.83" stroke="#1e1e1e" stroke-width="1" fill="none"></path></g><g transform="translate(1051.3548445339165 283.4573068372149) rotate(0 1.799210796602324 49.27536323844902)"><path d="M-6.6 70.9 C-5.64 77.35, -0.83 83.98, 2.07 100.65 M-6.51 71.68 C-4.17 79.6, -0.08 87.7, 2.8 98.36" stroke="#1e1e1e" stroke-width="1" fill="none"></path></g><g transform="translate(1051.3548445339165 283.4573068372149) rotate(0 1.799210796602324 49.27536323844902)"><path d="M13.91 70.42 C10.21 76.84, 10.36 83.59, 2.07 100.65 M14 71.21 C10.36 79.35, 8.45 87.58, 2.8 98.36" stroke="#1e1e1e" stroke-width="1" fill="none"></path></g></g><mask></mask><g stroke-linecap="round" transform="translate(186 650.4573068372149) rotate(0 89.5 35)"><path d="M112.5 9 M112.5 9 C121.98 14.54, 136.56 19.02, 156.5 27 M112.5 9 C123.26 12.35, 133.77 17.34, 156.5 27 M156.5 27 C177.49 37.52, 177.85 36.17, 156.5 45 M156.5 27 C177.2 35.92, 180.93 34.87, 156.5 45 M156.5 45 C146.71 47.42, 138.81 50.93, 112.5 61 M156.5 45 C144.94 48.73, 134.81 51.97, 112.5 61 M112.5 61 C88.69 68.23, 89.07 70.57, 67.5 61 M112.5 61 C89.12 71.67, 89.81 70.24, 67.5 61 M67.5 61 C52.07 56.2, 37 49.86, 22.5 45 M67.5 61 C51.17 55.51, 35.1 49.92, 22.5 45 M22.5 45 C1.34 37.76, -1.83 35.06, 22.5 27 M22.5 45 C-2.28 36.9, 1.17 37.22, 22.5 27 M22.5 27 C30.72 22.4, 41.88 18.48, 67.5 9 M22.5 27 C34.81 23.32, 46.04 17.09, 67.5 9 M67.5 9 C89.43 -0.86, 88.47 -1.61, 112.5 9 M67.5 9 C90.94 1.13, 89.36 -0.59, 112.5 9" stroke="#1e1e1e" stroke-width="1" fill="none"></path></g><g transform="translate(235.75 672.9573068372149) rotate(0 40 12.5)"><text x="40" y="0" font-family="Virgil, Segoe UI Emoji" font-size="20px" fill="#1e1e1e" text-anchor="middle" style="white-space: pre;" direction="ltr" dominant-baseline="text-before-edge">重置時間</text></g><g stroke-linecap="round" transform="translate(190 521.9573068372149) rotate(0 55.5 20)"><path d="M10 0 M10 0 C42.07 2.11, 77.38 -0.83, 101 0 M10 0 C36.34 0.49, 62.08 0.99, 101 0 M101 0 C107.17 -0.96, 111.33 2.42, 111 10 M101 0 C108.01 1.73, 111.79 2.18, 111 10 M111 10 C112.15 12.73, 110.92 17.78, 111 30 M111 10 C111.55 15.23, 109.89 18.47, 111 30 M111 30 C109.77 35.59, 107.01 39.69, 101 40 M111 30 C112.32 36.5, 108.78 38.73, 101 40 M101 40 C79.28 40.78, 58.59 39.43, 10 40 M101 40 C77.39 39.74, 53.79 40.23, 10 40 M10 40 C3.09 40.07, 1.43 35.61, 0 30 M10 40 C2.79 39.14, -0.42 35.43, 0 30 M0 30 C-0.02 25.24, -1.47 18.58, 0 10 M0 30 C-0.78 23.99, 0.19 20.45, 0 10 M0 10 C1.68 4.95, 3.28 -0.09, 10 0 M0 10 C-0.77 4.73, 5.13 -0.4, 10 0" stroke="#1e1e1e" stroke-width="1" fill="none"></path></g><g transform="translate(205.5 529.4573068372149) rotate(0 40 12.5)"><text x="40" y="0" font-family="Virgil, Segoe UI Emoji" font-size="20px" fill="#1e1e1e" text-anchor="middle" style="white-space: pre;" direction="ltr" dominant-baseline="text-before-edge">重置次數</text></g><g mask="url(#mask-3pHGmhZQ7MHPeIAIaP4KS)" stroke-linecap="round"><g transform="translate(272.6945921658056 647.9805364311867) rotate(0 -10.679759772438558 -38.0957432534546)"><path d="M-0.48 0.67 C-4.47 -12.08, -19.25 -64.25, -22.83 -76.86 M1.47 -0.03 C-2.23 -12.62, -16.52 -62.97, -20.56 -75.77" stroke="#1e1e1e" stroke-width="1" fill="none"></path></g><g transform="translate(272.6945921658056 647.9805364311867) rotate(0 -10.679759772438558 -38.0957432534546)"><path d="M-1.57 -53.07 C-11.05 -61.21, -14.94 -71.05, -21.86 -76.53 M-3.41 -52.5 C-9.92 -60.72, -16.16 -71.26, -19.99 -76.28" stroke="#1e1e1e" stroke-width="1" fill="none"></path></g><g transform="translate(272.6945921658056 647.9805364311867) rotate(0 -10.679759772438558 -38.0957432534546)"><path d="M-21.24 -47.21 C-22.98 -57.58, -19.16 -69.71, -21.86 -76.53 M-23.07 -46.64 C-21.79 -57.18, -20.18 -70.06, -19.99 -76.28" stroke="#1e1e1e" stroke-width="1" fill="none"></path></g></g><mask id="mask-3pHGmhZQ7MHPeIAIaP4KS"><rect x="0" y="0" fill="#fff" width="394.6945921658056" height="823.9805364311867"></rect><rect x="251.6945921658056" y="597.4805364311867" fill="#000" width="20" height="25" opacity="1"></rect></mask><g transform="translate(251.6945921658056 597.4805364311867) rotate(0 10.320240227561442 12.4042567465454)"><text x="10" y="0" font-family="Virgil, Segoe UI Emoji" font-size="20px" fill="#1e1e1e" text-anchor="middle" style="white-space: pre;" direction="ltr" dominant-baseline="text-before-edge">是</text></g><g mask="url(#mask-8pHgzNoAvP8YliVw0X2Eu)" stroke-linecap="round"><g transform="translate(196 700.4573068372149) rotate(0 -25.165977750981654 39.62014903653858)"><path d="M0.15 0.46 C-14.12 13.85, -91.17 75.94, -85.49 79.42 C-79.81 82.9, 14.08 31.15, 34.23 21.36 M-1.23 -0.35 C-15.71 12.8, -93.02 74.48, -86.69 77.73 C-80.37 80.99, 16.29 28.57, 36.73 19.2" stroke="#1e1e1e" stroke-width="1" fill="none"></path></g><g transform="translate(196 700.4573068372149) rotate(0 -25.165977750981654 39.62014903653858)"><path d="M16.94 40.25 C24.07 33.02, 29.62 28.29, 36.11 18.23 M16.34 41.55 C23.41 32.73, 29.22 27.39, 36.12 19.67" stroke="#1e1e1e" stroke-width="1" fill="none"></path></g><g transform="translate(196 700.4573068372149) rotate(0 -25.165977750981654 39.62014903653858)"><path d="M7.7 21.92 C17.54 20.33, 25.93 21.25, 36.11 18.23 M7.1 23.23 C17.36 20.5, 26.25 21.27, 36.12 19.67" stroke="#1e1e1e" stroke-width="1" fill="none"></path></g></g><mask id="mask-8pHgzNoAvP8YliVw0X2Eu"><rect x="0" y="0" fill="#fff" width="416" height="879.0426931627851"></rect><rect x="101" y="766.5426931627851" fill="#000" width="20" height="25" opacity="1"></rect></mask><g transform="translate(101 766.5426931627851) rotate(0 69.83402224901835 -26.46523728903162)"><text x="10" y="0" font-family="Virgil, Segoe UI Emoji" font-size="20px" fill="#1e1e1e" text-anchor="middle" style="white-space: pre;" direction="ltr" dominant-baseline="text-before-edge">否</text></g><g mask="url(#mask-lhR1MeZMPz2i5GMuO7GH7)" stroke-linecap="round"><g transform="translate(239 512.4573068372149) rotate(0 -71.56524497242646 -104.59956395628865)"><path d="M-1.05 -1.07 C-24.67 -36.1, -118.99 -175.48, -142.52 -210.18 M0.6 0.98 C-23.16 -33.94, -119.8 -174.41, -143.73 -209.26" stroke="#1e1e1e" stroke-width="1" fill="none"></path></g><g transform="translate(239 512.4573068372149) rotate(0 -71.56524497242646 -104.59956395628865)"><path d="M-121.1 -192.7 C-127.06 -196.46, -131.32 -200.2, -142.81 -209.17 M-118.87 -191.34 C-128.54 -197.81, -137.72 -204.89, -143.74 -208.74" stroke="#1e1e1e" stroke-width="1" fill="none"></path></g><g transform="translate(239 512.4573068372149) rotate(0 -71.56524497242646 -104.59956395628865)"><path d="M-138.01 -181.07 C-139.96 -187.45, -140.22 -193.93, -142.81 -209.17 M-135.78 -179.72 C-139.03 -190.48, -141.85 -201.92, -143.74 -208.74" stroke="#1e1e1e" stroke-width="1" fill="none"></path></g></g><mask id="mask-lhR1MeZMPz2i5GMuO7GH7"><rect x="0" y="0" fill="#fff" width="481" height="821.4573068372149"></rect><rect x="158" y="395.4573068372149" fill="#000" width="20" height="25" opacity="1"></rect></mask><g transform="translate(158 395.4573068372149) rotate(0 9.434755027573544 12.400436043711352)"><text x="10" y="0" font-family="Virgil, Segoe UI Emoji" font-size="20px" fill="#1e1e1e" text-anchor="middle" style="white-space: pre;" direction="ltr" dominant-baseline="text-before-edge">是</text></g><g mask="url(#mask-Hk0a0uBQydiEjeqpxfiHj)" stroke-linecap="round"><g transform="translate(1119.6412794623634 429.9340772432431) rotate(0 54.32128674473438 28.09305248340786)"><path d="M-0.5 0.72 C17.63 10.09, 91.18 46.88, 109.15 56.13 M1.43 0.05 C19.48 9.12, 90.72 45.51, 108.77 54.58" stroke="#1e1e1e" stroke-width="1" fill="none"></path></g><g transform="translate(1119.6412794623634 429.9340772432431) rotate(0 54.32128674473438 28.09305248340786)"><path d="M80.19 52.8 C90.57 51, 100.49 54.12, 109.68 52.88 M78.83 50.31 C89.38 52.78, 99.19 53.18, 109.55 55.12" stroke="#1e1e1e" stroke-width="1" fill="none"></path></g><g transform="translate(1119.6412794623634 429.9340772432431) rotate(0 54.32128674473438 28.09305248340786)"><path d="M89.47 34.5 C96.79 38.66, 103.66 47.79, 109.68 52.88 M88.11 32 C95.46 40.7, 102.12 47.31, 109.55 55.12" stroke="#1e1e1e" stroke-width="1" fill="none"></path></g></g><mask id="mask-Hk0a0uBQydiEjeqpxfiHj"><rect x="0" y="0" fill="#fff" width="1327.6945921658055" height="584.9805364311867"></rect><rect x="1163.6679358140846" y="444.9573068372149" fill="#000" width="20" height="25" opacity="1"></rect></mask><g transform="translate(1163.6679358140846 444.9573068372149) rotate(0 10.294630393013222 13.069822889436068)"><text x="10" y="0" font-family="Virgil, Segoe UI Emoji" font-size="20px" fill="#1e1e1e" text-anchor="middle" style="white-space: pre;" direction="ltr" dominant-baseline="text-before-edge">是</text></g><g mask="url(#mask-di9IqZmI4NqpJn-v3UMb9)" stroke-linecap="round"><g transform="translate(1053.9419729297845 473.784850261756) rotate(0 2.1559362317608475 58.938434421607326)"><path d="M0.32 0.63 C0.74 19.88, 2.55 97.37, 3.08 116.67 M-0.98 -0.09 C-0.23 19.83, 4.73 98.39, 5.29 117.97" stroke="#1e1e1e" stroke-width="1" fill="none"></path></g><g transform="translate(1053.9419729297845 473.784850261756) rotate(0 2.1559362317608475 58.938434421607326)"><path d="M-5.27 88.72 C-2.83 98.79, 0.73 110.03, 5.17 117.13 M-7.13 90.79 C-2.67 98.23, 1.42 107.5, 5.6 117.51" stroke="#1e1e1e" stroke-width="1" fill="none"></path></g><g transform="translate(1053.9419729297845 473.784850261756) rotate(0 2.1559362317608475 58.938434421607326)"><path d="M15.23 87.73 C10.65 98.2, 7.18 109.77, 5.17 117.13 M13.37 89.81 C11.64 97.58, 9.54 107.14, 5.6 117.51" stroke="#1e1e1e" stroke-width="1" fill="none"></path></g></g><mask id="mask-di9IqZmI4NqpJn-v3UMb9"><rect x="0" y="0" fill="#fff" width="1157.96813293176" height="690.9154878149432"></rect><rect x="1045.9550529307724" y="519.8501690383496" fill="#000" width="20" height="25" opacity="1"></rect></mask><g transform="translate(1045.9550529307721 519.8501690383496) rotate(0 10.14285623077319 12.87311564501374)"><text x="10" y="0" font-family="Virgil, Segoe UI Emoji" font-size="20px" fill="#1e1e1e" text-anchor="middle" style="white-space: pre;" direction="ltr" dominant-baseline="text-before-edge">否</text></g><g mask="url(#mask-mymVayNZmE_aYoPaPWL6y)" stroke-linecap="round"><g transform="translate(1126.1640863670245 633.4197156047055) rotate(0 47.43314376569185 -50.20281062378359)"><path d="M0.61 -0.76 C16.54 -17.94, 79.7 -85.34, 95.4 -101.86 M-0.53 1.45 C15.28 -15.09, 78.89 -83.61, 94.63 -100.8" stroke="#1e1e1e" stroke-width="1" fill="none"></path></g><g transform="translate(1126.1640863670245 633.4197156047055) rotate(0 47.43314376569185 -50.20281062378359)"><path d="M81.78 -72.55 C84.57 -81.55, 91.16 -87.04, 93.66 -102.19 M82.89 -73.23 C87.05 -81.05, 90.46 -89.18, 94.14 -100.25" stroke="#1e1e1e" stroke-width="1" fill="none"></path></g><g transform="translate(1126.1640863670245 633.4197156047055) rotate(0 47.43314376569185 -50.20281062378359)"><path d="M66.7 -86.47 C73.95 -91.57, 84.85 -93.07, 93.66 -102.19 M67.81 -87.15 C76.46 -90.89, 84.31 -94.92, 94.14 -100.25" stroke="#1e1e1e" stroke-width="1" fill="none"></path></g></g><mask id="mask-mymVayNZmE_aYoPaPWL6y"><rect x="0" y="0" fill="#fff" width="1321.2173990704666" height="834.3732564167619"></rect><rect x="1163.6907427187457" y="570.4429451986773" fill="#000" width="20" height="25" opacity="1"></rect></mask><g transform="translate(1163.6907427187457 570.4429451986773) rotate(0 9.906487413970694 12.773959782244617)"><text x="10" y="0" font-family="Virgil, Segoe UI Emoji" font-size="20px" fill="#1e1e1e" text-anchor="middle" style="white-space: pre;" direction="ltr" dominant-baseline="text-before-edge">是</text></g><g mask="url(#mask-lk7mY46xFpfnNuFfPoobC)" stroke-linecap="round"><g transform="translate(983.1366344000492 645.0879601086561) rotate(0 -25.11152199655635 39.01808948436053)"><path d="M-0.96 -0.01 C-15.24 13, -90.85 74.35, -85.05 77.78 C-79.25 81.21, 13.72 30, 33.84 20.56 M0.73 -1.06 C-13.76 12.1, -91.92 75.11, -86.02 78.9 C-80.13 82.68, 15.74 31.07, 36.12 21.65" stroke="#1e1e1e" stroke-width="1" fill="none"></path></g><g transform="translate(983.1366344000492 645.0879601086561) rotate(0 -25.11152199655635 39.01808948436053)"><path d="M15.53 43.4 C21.52 34, 29.38 29.35, 36.4 20.04 M15.09 43.9 C23.08 35.03, 28.73 28.46, 36.77 22.32" stroke="#1e1e1e" stroke-width="1" fill="none"></path></g><g transform="translate(983.1366344000492 645.0879601086561) rotate(0 -25.11152199655635 39.01808948436053)"><path d="M6.31 25.07 C15.51 22.21, 26.63 24.03, 36.4 20.04 M5.87 25.57 C16.93 22.91, 25.72 22.57, 36.77 22.32" stroke="#1e1e1e" stroke-width="1" fill="none"></path></g></g><mask id="mask-lk7mY46xFpfnNuFfPoobC"><rect x="0" y="0" fill="#fff" width="1203.1366344000492" height="823.6733464342263"></rect><rect x="888.1366344000492" y="711.1733464342263" fill="#000" width="20" height="25" opacity="1"></rect></mask><g transform="translate(888.1366344000492 711.1733464342265) rotate(0 69.88847800344365 -27.067296841209668)"><text x="10" y="0" font-family="Virgil, Segoe UI Emoji" font-size="20px" fill="#1e1e1e" text-anchor="middle" style="white-space: pre;" direction="ltr" dominant-baseline="text-before-edge">否</text></g><g stroke-linecap="round" transform="translate(1218 231.4573068372149) rotate(0 68 22.5)"><path d="M11.25 0 M11.25 0 C41.94 1.4, 75.45 0.93, 124.75 0 M11.25 0 C55.32 -0.71, 99.78 -0.75, 124.75 0 M124.75 0 C134.17 0.41, 134.48 3.63, 136 11.25 M124.75 0 C132.95 -2.3, 135.67 4.55, 136 11.25 M136 11.25 C137.07 17.82, 137.54 23.69, 136 33.75 M136 11.25 C136.47 19.69, 135.87 28.49, 136 33.75 M136 33.75 C135.23 39.82, 133.44 46.14, 124.75 45 M136 33.75 C137.99 41.26, 131.65 43.95, 124.75 45 M124.75 45 C97.11 45.83, 69.84 43.76, 11.25 45 M124.75 45 C101.22 45.76, 79.14 46.12, 11.25 45 M11.25 45 C4.43 43.96, -0.66 39.76, 0 33.75 M11.25 45 C5.37 45.68, -1.84 41.74, 0 33.75 M0 33.75 C1.02 27.09, 0.85 21.98, 0 11.25 M0 33.75 C-0.78 25.18, -0.65 16.12, 0 11.25 M0 11.25 C-0.87 2.74, 2.39 -1.98, 11.25 0 M0 11.25 C-1.43 2.4, 3.31 -0.85, 11.25 0" stroke="#1e1e1e" stroke-width="1" fill="none"></path></g><g transform="translate(1236 241.4573068372149) rotate(0 50 12.5)"><text x="50" y="0" font-family="Virgil, Segoe UI Emoji" font-size="20px" fill="#1e1e1e" text-anchor="middle" style="white-space: pre;" direction="ltr" dominant-baseline="text-before-edge">發送好消息</text></g><g stroke-linecap="round"><g transform="translate(1128.2007892033976 257.18194359876577) rotate(0 37.18368736058869 -1.8480111228909664)"><path d="M0.46 0.23 C12.84 -0.04, 62.75 -1.46, 75.13 -1.97 M-0.76 -0.69 C11.36 -1.32, 61.64 -3.74, 74.04 -3.93" stroke="#1e1e1e" stroke-width="1" fill="none"></path></g><g transform="translate(1128.2007892033976 257.18194359876577) rotate(0 37.18368736058869 -1.8480111228909664)"><path d="M46.61 6.85 C57.1 1.96, 65.98 -2.68, 75.43 -2.54 M47.04 8.14 C54.87 2.69, 66.07 -0.45, 74.45 -3.66" stroke="#1e1e1e" stroke-width="1" fill="none"></path></g><g transform="translate(1128.2007892033976 257.18194359876577) rotate(0 37.18368736058869 -1.8480111228909664)"><path d="M45.9 -13.66 C56.61 -10.94, 65.74 -7.96, 75.43 -2.54 M46.34 -12.37 C54.59 -10.77, 66.03 -6.87, 74.45 -3.66" stroke="#1e1e1e" stroke-width="1" fill="none"></path></g></g><mask></mask><g stroke-linecap="round"><g transform="translate(1307.2007892033976 483.18194359876577) rotate(0 -9.04129806965193 -97.08304863030577)"><path d="M-0.68 -0.68 C-3.62 -33.03, -15.76 -161.76, -18.75 -194.19 M1.16 1.57 C-1.76 -31.08, -15.9 -163.15, -19.24 -195.74" stroke="#1e1e1e" stroke-width="1" fill="none"></path></g><g transform="translate(1307.2007892033976 483.18194359876577) rotate(0 -9.04129806965193 -97.08304863030577)"><path d="M-7.23 -167.34 C-6.97 -172.77, -11.49 -178.13, -17.26 -194.96 M-5.8 -168.69 C-10.14 -177, -14.41 -187.64, -19.55 -195.7" stroke="#1e1e1e" stroke-width="1" fill="none"></path></g><g transform="translate(1307.2007892033976 483.18194359876577) rotate(0 -9.04129806965193 -97.08304863030577)"><path d="M-27.64 -165.2 C-23.17 -170.95, -23.48 -176.75, -17.26 -194.96 M-26.21 -166.55 C-23.68 -175.48, -21.07 -186.84, -19.55 -195.7" stroke="#1e1e1e" stroke-width="1" fill="none"></path></g></g><mask></mask><g stroke-linecap="round"><g transform="translate(124.04129806965227 77.54035546752084) rotate(0 -4.314321975704075 20.5378279665064)"><path d="M-0.83 0.38 C-2.27 6.96, -8.11 33.51, -9.56 39.9 M0.93 -0.46 C-0.06 6.3, -6 34.87, -7.35 41.54" stroke="#1e1e1e" stroke-width="1" fill="none"></path></g><g transform="translate(124.04129806965227 77.54035546752084) rotate(0 -4.314321975704075 20.5378279665064)"><path d="M-9.69 19.85 C-9.29 24.34, -10.58 29.19, -6.85 42.02 M-10.03 20.81 C-9.47 29.41, -7.65 36.09, -6.55 40.96" stroke="#1e1e1e" stroke-width="1" fill="none"></path></g><g transform="translate(124.04129806965227 77.54035546752084) rotate(0 -4.314321975704075 20.5378279665064)"><path d="M3.92 22.64 C1.29 26.41, -3.03 30.64, -6.85 42.02 M3.58 23.59 C-0.85 31.19, -4.01 36.85, -6.55 40.96" stroke="#1e1e1e" stroke-width="1" fill="none"></path></g></g><mask></mask><g stroke-linecap="round" transform="translate(756.5 10) rotate(0 97.5 31)"><path d="M15.5 0 M15.5 0 C80.02 1.17, 144.66 -1.23, 179.5 0 M15.5 0 C54.88 0, 93.3 0.22, 179.5 0 M179.5 0 C187.9 0.95, 194.47 3.95, 195 15.5 M179.5 0 C190.94 1.31, 195.02 6.85, 195 15.5 M195 15.5 C193.64 25.34, 194.08 38.68, 195 46.5 M195 15.5 C195.02 21.89, 194.28 28.34, 195 46.5 M195 46.5 C196.36 55.55, 188.24 60.33, 179.5 62 M195 46.5 C195.38 57.83, 188.95 63.55, 179.5 62 M179.5 62 C118.73 59.54, 56.32 60.91, 15.5 62 M179.5 62 C135.65 62.56, 90.56 61.99, 15.5 62 M15.5 62 C5.06 63.96, 0.4 56.4, 0 46.5 M15.5 62 C3.06 62.32, -0.37 56.82, 0 46.5 M0 46.5 C-1.92 37.61, -1.61 31.92, 0 15.5 M0 46.5 C-0.62 39.8, 0.68 30.66, 0 15.5 M0 15.5 C-0.21 6.27, 5.5 0.6, 15.5 0 M0 15.5 C0.87 4.7, 4.64 0.19, 15.5 0" stroke="#1e1e1e" stroke-width="1" fill="none"></path></g><g transform="translate(779.7400360107422 28.5) rotate(0 74.25996398925781 12.5)"><text x="74.25996398925781" y="0" font-family="Virgil, Segoe UI Emoji" font-size="20px" fill="#1e1e1e" text-anchor="middle" style="white-space: pre;" direction="ltr" dominant-baseline="text-before-edge">叫matt/line做事</text></g><g stroke-linecap="round"><g transform="translate(1049.5 227) rotate(0 -96.16664583520958 -73.94384027980269)"><path d="M0.76 0.63 C-31.44 -23.96, -160.08 -123.65, -192.44 -148.52 M-0.3 -0.08 C-32.67 -24.43, -160.75 -122.67, -193.1 -147.25" stroke="#1e1e1e" stroke-width="1" fill="none"></path></g><g transform="translate(1049.5 227) rotate(0 -96.16664583520958 -73.94384027980269)"><path d="M-163.41 -137.36 C-175.66 -142.01, -186.19 -146.32, -193.11 -145.89 M-164.19 -138.14 C-169.66 -140.72, -175.85 -141.19, -193.77 -147.07" stroke="#1e1e1e" stroke-width="1" fill="none"></path></g><g transform="translate(1049.5 227) rotate(0 -96.16664583520958 -73.94384027980269)"><path d="M-175.87 -121.06 C-183.46 -131.71, -189.47 -141.94, -193.11 -145.89 M-176.64 -121.84 C-179.39 -127.93, -182.93 -131.88, -193.77 -147.07" stroke="#1e1e1e" stroke-width="1" fill="none"></path></g></g><mask></mask><g stroke-linecap="round"><g transform="translate(1276.5 222) rotate(0 -159.98060213180258 -71.66656955453567)"><path d="M-0.71 0.32 C-54.15 -23.34, -266.77 -118.32, -320.09 -142.04 M1.12 -0.56 C-52.54 -24.53, -267.28 -119.78, -321.08 -143.65" stroke="#1e1e1e" stroke-width="1" fill="none"></path></g><g transform="translate(1276.5 222) rotate(0 -159.98060213180258 -71.66656955453567)"><path d="M-290.62 -141.74 C-299.95 -143.46, -310.24 -142.36, -319.33 -142.45 M-291.7 -140.88 C-299.6 -141.36, -308.41 -142.05, -321.83 -143.38" stroke="#1e1e1e" stroke-width="1" fill="none"></path></g><g transform="translate(1276.5 222) rotate(0 -159.98060213180258 -71.66656955453567)"><path d="M-298.94 -122.98 C-305.36 -131.17, -312.77 -136.59, -319.33 -142.45 M-300.02 -122.12 C-305.32 -128.36, -311.61 -134.74, -321.83 -143.38" stroke="#1e1e1e" stroke-width="1" fill="none"></path></g></g><mask></mask></svg>